<?xml version="1.0" standalone="no"?>
<!DOCTYPE svg PUBLIC "-//W3C//DTD SVG 20010904//EN"
 "http://www.w3.org/TR/2001/REC-SVG-20010904/DTD/svg10.dtd">
<svg version="1.0" xmlns="http://www.w3.org/2000/svg"
 width="700.000000pt" height="700.000000pt" viewBox="0 0 700.000000 700.000000"
 preserveAspectRatio="xMidYMid meet">
<metadata>
Created by potrace 1.11, written by Peter Selinger 2001-2013
</metadata>
<g transform="translate(0.000000,700.000000) scale(0.100000,-0.100000)"
fill="#000000" stroke="none">
<path d="M1750 3500 l0 -2625 649 0 c357 0 653 3 657 7 4 5 7 890 7 1968 0
1403 3 1960 11 1961 6 0 498 0 1094 1 l1082 0 0 657 0 656 -1750 0 -1750 0 0
-2625z"/>
<path d="M3939 2172 c-5 -116 0 -1284 5 -1290 4 -4 300 -7 657 -7 l649 0 0
657 0 657 -655 -1 c-603 0 -655 -1 -656 -16z"/>
</g>
</svg>
