<svg xmlns="http://www.w3.org/2000/svg" width="50" height="50" viewBox="0 0 50 50">
    <g fill="none" fill-rule="evenodd">
        <path fill="#000" d="M0 0h50v50H0z" opacity=".01"/>
        <path fill="#FFF" fill-rule="nonzero"
              d="M25 38c-7.18 0-13-5.82-13-13s5.82-13 13-13 13 5.82 13 13-5.82 13-13 13zm0-2c6.075 0 11-4.925 11-11s-4.925-11-11-11-11 4.925-11 11 4.925 11 11 11z"
              opacity=".9"/>
        <path fill="#FFF"
              d="M23.908 26.672c-.053-.555-.027-1.027.08-1.416.107-.39.253-.725.44-1.008.187-.283.4-.528.64-.736.24-.208.464-.408.672-.6a3.35 3.35 0 0 0 .52-.6 1.31 1.31 0 0 0 .208-.744c0-.373-.104-.672-.312-.896-.208-.224-.579-.336-1.112-.336-.17 0-.352.019-.544.056-.192.037-.384.09-.576.16a4.66 4.66 0 0 0-1.024.52l-.8-1.536a5.803 5.803 0 0 1 1.4-.688c.528-.181 1.165-.272 1.912-.272 1.003 0 1.787.243 2.352.728s.848 1.139.848 1.96c0 .544-.072.995-.216 1.352a3.293 3.293 0 0 1-.536.912c-.213.25-.448.472-.704.664-.256.192-.49.397-.704.616a3.168 3.168 0 0 0-.544.76c-.15.288-.224.656-.224 1.104h-1.776zm-.32 2.272c0-.373.117-.67.352-.888.235-.219.544-.328.928-.328.405 0 .725.11.96.328.235.219.352.515.352.888s-.117.672-.352.896c-.235.224-.555.336-.96.336-.384 0-.693-.112-.928-.336-.235-.224-.352-.523-.352-.896z"/>
    </g>
</svg>
