<svg xmlns="http://www.w3.org/2000/svg" width="60" height="40" viewBox="0 0 60 40">
    <g fill="#FFF" fill-rule="evenodd">
        <path d="M5.023 10.916c-3.24 0-5.016-2.118-5.016-5.295C.007 2.5 1.797.325 5.023.325c2.445 0 3.937 1.345 4.32 3.278H6.615c-.185-.602-.753-.93-1.606-.93-1.478 0-2.302 1.159-2.302 2.948 0 1.803.838 2.991 2.345 2.991 1.18 0 1.876-.687 1.918-1.617H5.01V4.89h4.576v1.302c0 2.405-1.293 4.723-4.562 4.723zM15.782 10.916c2.814 0 4.434-1.431 4.434-4.007V.511h-2.629v6.34c0 1.031-.668 1.718-1.79 1.718-1.123 0-1.791-.687-1.791-1.717V.51h-2.629v6.398c0 2.576 1.62 4.007 4.405 4.007M33.874 3.03h.626l.81 2.963h-2.26l.824-2.963zm-2.118 7.7l.726-2.647h3.41l.74 2.648h2.628L36.22.51h-3.995l-2.342 7.872H25.02V.51h-2.644v10.22H31.756zM44.96 10.916c3.269 0 4.562-2.318 4.562-4.723V4.891h-4.576v2.104h1.961c-.042.93-.739 1.617-1.918 1.617-1.506 0-2.345-1.188-2.345-2.991 0-1.79.824-2.949 2.302-2.949.853 0 1.421.33 1.606.93h2.729C48.897 1.67 47.405.326 44.96.326c-3.227 0-5.018 2.176-5.018 5.296 0 3.177 1.777 5.295 5.017 5.295M9.5 25.184v-10.22H6.856v3.78H3.09v-3.78H.447v10.22H3.09v-4.05h3.766v4.05zM11.576 25.184h2.472V17.74h-2.472zM11.576 16.854h2.472v-2.075h-2.472zM15.754 19.974c0 1.26.881 1.89 2.118 2.09l1.307.215c.597.1.895.257.895.672 0 .401-.34.644-.937.644-.697 0-1.109-.286-1.18-.859h-2.444c.142 1.59 1.279 2.634 3.595 2.634 2.317 0 3.44-1.202 3.44-2.476 0-1.517-1.038-2.204-2.516-2.404l-1.208-.172c-.37-.057-.597-.2-.597-.515 0-.33.341-.501.753-.501.512 0 .81.157.896.543h2.43c-.17-1.345-1.35-2.29-3.269-2.29-2.302 0-3.283 1.117-3.283 2.42M24.594 15.738v2.004h-1.222v2.032h1.222v3.077c0 1.99 1.322 2.333 3.056 2.333h1.137V23.11h-.995c-.525 0-.724-.3-.724-.644v-2.691h1.719v-2.032h-1.72v-2.004h-2.473zM33.946 23.338c-1.037 0-1.478-.83-1.478-1.875 0-1.031.441-1.875 1.478-1.875 1.038 0 1.464.844 1.464 1.875 0 1.045-.426 1.875-1.464 1.875m0-5.783c-2.359 0-3.95 1.503-3.95 3.908 0 2.404 1.591 3.907 3.95 3.907 2.374 0 3.937-1.503 3.937-3.907 0-2.405-1.563-3.908-3.937-3.908M41.92 22.178c0-1.374.583-2.146 2.174-2.146h.64v-2.29h-.683c-1.264 0-1.762.572-1.918.844h-.284v-.845h-2.402v7.443h2.473v-3.006zM49.694 28.047l4.477-10.306h-2.444l-1.493 3.607h-.398l-1.662-3.607H45.7l3.1 6.627-1.55 3.679zM5.862 33.312h-.285l-1.293-3.994H.447v10.22h2.43v-7.2h.284l1.322 3.965h2.473l1.322-3.965h.284v7.2h2.43v-10.22H7.155zM17.886 36.017c0 .816-.455 1.531-1.293 1.531-.768 0-1.137-.515-1.137-1.374v-4.079h-2.473v4.451c0 1.847.853 3.178 2.8 3.178.938 0 1.606-.387 1.904-.859h.284v.673h2.388v-7.443h-2.473v3.922zM26.343 34.843l-1.208-.172c-.37-.057-.597-.2-.597-.515 0-.33.34-.501.753-.501.512 0 .81.157.895.544h2.43c-.17-1.345-1.35-2.29-3.268-2.29-2.302 0-3.283 1.116-3.283 2.419 0 1.26.88 1.89 2.117 2.09l1.308.214c.597.1.895.258.895.673 0 .4-.34.644-.938.644-.696 0-1.109-.286-1.18-.86h-2.444c.143 1.59 1.28 2.635 3.596 2.635s3.439-1.203 3.439-2.477c0-1.517-1.037-2.203-2.515-2.404M32.497 34.657c.185-.63.568-.973 1.279-.973.696 0 1.08.343 1.208.973h-2.487zm1.279-2.748c-2.317 0-3.823 1.474-3.823 3.907s1.52 3.908 3.88 3.908c2.103 0 3.31-.988 3.624-2.59h-2.501c-.157.371-.484.557-1.08.557-.924 0-1.393-.544-1.479-1.546h5.117v-.572c0-2.219-1.38-3.664-3.738-3.664zM43.896 36.017c0 .816-.455 1.531-1.294 1.531-.767 0-1.137-.515-1.137-1.374v-4.079h-2.473v4.451c0 1.847.853 3.178 2.8 3.178.938 0 1.606-.387 1.905-.859h.283v.673h2.388v-7.443h-2.472v3.922zM57.028 31.909c-.895 0-1.578.315-1.962.859h-.284c-.37-.53-1.023-.86-1.904-.86-.824 0-1.507.302-1.862.86h-.284v-.673H48.33v7.443h2.473v-3.936c0-.816.284-1.517 1.094-1.517.725 0 .938.529.938 1.36v4.093h2.474v-4.05c0-.774.326-1.403 1.094-1.403.725 0 .938.529.938 1.36v4.093h2.472v-4.495c0-1.86-.824-3.134-2.785-3.134"/>
    </g>
</svg>
