<svg xmlns="http://www.w3.org/2000/svg" width="61" height="40" viewBox="0 0 61 40">
    <g fill="#FFF" fill-rule="evenodd">
        <path d="M43.87 16.061v7.459h2.428l2.474-3.672h.23v3.672h2.43V16.06h-2.43l-2.474 3.671h-.23v-3.67zM22.143 23.52v-5.421h2.371V16.06H17.27V18.1h2.37v5.42zM12.71 17.912c.561 0 .892.23 1.02.673h2.461c-.159-1.635-1.554-2.712-3.496-2.712-2.314 0-3.866 1.492-3.866 3.917 0 2.44 1.552 3.917 3.866 3.917 1.957 0 3.424-1.162 3.568-2.856h-2.46c-.072.516-.473.818-1.092.818-1.007 0-1.381-.846-1.381-1.879 0-1.019.36-1.878 1.38-1.878M4.931 19.848h.232v3.672h2.43v-7.458h-2.43l-2.473 3.67h-.233v-3.67H.03v7.458h2.428zM58.377 16.061l-2.474 3.671h-.23v-3.67h-2.43v7.458h2.43l2.474-3.672h.23v3.672h2.316V16.06zM37.067 19.79c0-1.004.46-1.878 1.511-1.878 1.049 0 1.465.874 1.465 1.878 0 1.005-.416 1.879-1.465 1.879-1.051 0-1.51-.874-1.51-1.879m5.479 0c0-2.281-1.237-3.918-3.28-3.918-1.05 0-1.61.434-1.882.849h-.288v-.66h-2.43v10.327h2.503V22.86h.288c.27.415.775.846 1.808.846 2.044 0 3.28-1.634 3.28-3.916M27.692 19.79c0-1.032.447-1.878 1.497-1.878s1.479.846 1.479 1.878c0 1.048-.43 1.879-1.48 1.879s-1.496-.831-1.496-1.879m5.48 0c0-2.41-1.58-3.918-3.983-3.918-2.386 0-3.996 1.509-3.996 3.918 0 2.41 1.61 3.916 3.996 3.916 2.402 0 3.984-1.506 3.984-3.916M42.173 2.279c1.754 0 2.716-.816 2.817-2.194h-1.899c-.042.33-.3.661-.918.661-.619 0-.878-.33-.921-.66h-1.899c.101 1.363 1.063 2.193 2.82 2.193M24.327 8.55c-.687 0-1.262-.175-1.394-.69h-2.272c.157 1.677 1.351 2.653 3.825 2.653 2.1 0 3.552-.976 3.552-2.425 0-.845-.417-1.334-.962-1.505v-.285c.343-.174.761-.531.761-1.423 0-1.289-1.279-2.193-3.321-2.193-1.942 0-3.436.803-3.61 2.61h2.257c.058-.401.46-.646 1.15-.646.675 0 1.066.23 1.066.59 0 .385-.305.558-.863.558h-1.093V7.37h1.166c.618 0 .947.13.947.531 0 .443-.462.647-1.21.647M13.341 13.195h2.474l4.53-10.327h-2.472l-1.51 3.614h-.402l-1.684-3.614h-2.5l3.132 6.64zM2.486 3.11h.289l1.337 3.976h2.502L7.952 3.11h.288v7.217h2.458V.085H6.814L5.508 4.087H5.22L3.91.085H.03v10.242h2.457zM43.293 6.655h.23v3.672h2.317l.003-7.459h-2.32L41.05 6.54h-.23V2.868h-2.43v7.46h2.43zM33.113 4.46c.705 0 1.091.345 1.222.974h-2.516c.186-.63.575-.974 1.294-.974m.058 6.053c2.128 0 3.35-.99 3.666-2.596h-2.53c-.158.373-.489.559-1.093.559-.933 0-1.408-.544-1.496-1.549h5.177v-.573c0-2.225-1.393-3.672-3.782-3.672-2.344 0-3.866 1.475-3.866 3.916 0 2.437 1.537 3.915 3.924 3.915M13.747 29.295l-1.94 4.09h-.405l-2.13-4.09H.029v10.241h2.673v-7.887H7.76l2.565 4.82-1.467 3.067h2.632l4.915-10.241zM18.203 33.844c0 2.912-.374 3.11-1.424 3.11h-.403v2.582h.466c2.583-.009 3.835-.775 3.835-5.62v-2.267h2.802v7.887h2.675V29.295h-7.951v4.55zM46.37 29.295h-7.663v10.241h2.674v-7.887h4.99zM31.286 34.79l.837-2.968h.632l.82 2.967h-2.289zm-.833-5.495l-3.075 10.241h2.603l.731-2.65h3.451l.748 2.65h2.66l-3.077-10.241h-4.04zM50.474 36.64c0 .703-.487 1.25-1.308 1.25-.66 0-1.065-.289-1.065-.847 0-.531.477-.834 1.166-.834h1.207v.43zm1.902-3.584c-.592-.836-1.682-1.163-3.064-1.163-1.927 0-3.281.96-3.324 2.41h2.474c.058-.4.361-.647.992-.647.632 0 1.02.246 1.02.949v.129h-1.723c-2.274 0-3.149 1.32-3.149 2.48 0 1.029.57 1.945 1.636 2.322 0 0 .565.184 1.113.184.597 0 1.056-.184 1.056-.184.363-.141.644-.347.883-.6h.285v.6h2.184l-.003-5.175c0-.462-.113-.927-.38-1.305z"/>
    </g>
</svg>
