<svg xmlns="http://www.w3.org/2000/svg" width="84" height="16" viewBox="0 0 84 16">
    <g fill="#FFF" fill-rule="nonzero">
        <path d="M48.217.012h2.178v15.973h-2.178zM77.463.012h-1.696l-5.765 15.973h2.312l1.652-4.695h5.298l1.652 4.695h2.311L77.463.012zm-2.759 9.123l1.91-5.613 1.912 5.613h-3.822zM60.103 2.173h3.394l2.209 2.23 1.518-1.532L64.39.012h-5.18l-4.156 4.195v7.577l4.16 4.2h5.173l2.838-2.863-1.518-1.534-2.21 2.232h-3.393l-2.904-2.932V5.104zM42.707 5.621V2.948L39.799.011h-7.426v15.973h7.587l3.307-3.34v-3.05l-2.247-2.27 1.687-1.703zm-8.188-3.458h4.424l1.649 1.664v.902L38.9 6.44h-4.382V2.163zm6.64 8.326v1.262l-2.065 2.084h-4.579V8.563h4.739l1.905 1.926zM16.638.012v15.973h2.179V9.49h3.84l2.801 6.494h2.41l-2.927-6.659 2.967-3.01V3.128L24.823.012h-8.185zm9.125 5.42L23.9 7.313l-5.083.001V2.186h5.123l1.822 1.84v1.406zM9.712 11.57l-2.22 2.223H4.379L2.167 11.57V.012H0v12.48l3.45 3.493h4.972l3.456-3.492V.012H9.712z"/>
    </g>
</svg>
