<svg xmlns="http://www.w3.org/2000/svg" width="151" height="29" viewBox="0 0 151 29">
    <g fill="#FFF" fill-rule="nonzero">
        <path d="M87.218.022h3.94v28.95h-3.94zM140.12.022h-3.069l-10.427 28.95h4.182l2.988-8.509h9.583l2.989 8.51h4.18L140.12.021zm-4.99 16.536l3.452-10.174 3.46 10.174h-6.913zM108.717 3.938h6.14l3.995 4.043 2.747-2.778L116.47.022h-9.368l-7.519 7.604v13.732l7.524 7.614h9.359l5.133-5.19-2.747-2.78-3.995 4.046h-6.14l-5.253-5.316V9.251zM77.25 10.189V5.343L71.99.021H58.557v28.95h13.724l5.984-6.054V17.39l-4.067-4.115 3.052-3.086zM62.44 3.92h8.003l2.981 3.015v1.636l-3.06 3.098h-7.926V3.921h.001zm12.01 15.09v2.287l-3.735 3.777h-8.282V15.52h8.571l3.446 3.49zM30.095.022v28.95h3.942V17.203h6.945l5.068 11.77h4.36l-5.296-12.07 5.367-5.456V5.672L44.9.022H30.095zm16.506 9.823l-3.367 3.41-9.196.002V3.962h9.269l3.295 3.336v2.547zM17.567 20.97L13.553 25H7.92l-4-4.03V.023H0v22.621l6.239 6.33h8.996l6.25-6.33V.022h-3.918z"/>
    </g>
</svg>